<svg xmlns="http://www.w3.org/2000/svg" viewBox="0 0 1752.79 315.86"><defs><style>.cls-1,.cls-4{fill:#01101e;}.cls-2,.cls-5{fill:#0355a2;}.cls-3{fill:#4096cc;}.cls-4{font-size:227.16px;letter-spacing:0.01em;}.cls-4,.cls-5{font-family:DoppioOne-Regular, Doppio One;}.cls-5{font-size:86.61px;letter-spacing:0.17em;}</style></defs><g id="Layer_2" data-name="Layer 2"><g id="Layer_6" data-name="Layer 6"><path class="cls-1" d="M195.56,97.38l-39-51.68a24.61,24.61,0,0,0-34.49-4.82L9.8,125.58A24.63,24.63,0,0,0,5,160.07L98.69,284.28a24.63,24.63,0,0,0,34.5,4.82l76.22-57.52,36-27.19a24.61,24.61,0,0,0,4.83-34.49Zm32.3,85.88-35,26.41-75,56.63L28.09,146.76,137.6,64l36.93,49.28.5.67-34.6,26.23L156.92,162l35.27-26.74Z"/><path class="cls-2" d="M400.43,169.05a24.63,24.63,0,0,1-4.71,34.52l-39.5,30-72.48,55.07a24.64,24.64,0,0,1-28.45,1,23.87,23.87,0,0,1-6-5.67l-35.08-46.15,20.23-15.28,1.23-.93,30.63,40.51,3,4,108.57-81.9-35.47-47L339.05,133l0,0-4.39,3.36-32.91,25-16.48-21.86,21.95-16.65,15.49-11.75-.15-.2-.08.07L286.89,63.63l-.52.39L221,113.81l-2-2.6L204.26,91.67l67.53-51.21a24.66,24.66,0,0,1,34.52,4.7L344.14,95Z"/><path class="cls-3" d="M392.79,282.06l131.63-98.74-37.67-49L417,187.51l.06-.45a24.56,24.56,0,0,0-4.83-17.51l-4.84-6.43,64.82-47.92a25.17,25.17,0,0,1,35,4.54L545.83,169a24.62,24.62,0,0,1-4.83,34.5L429.62,287.24a26.32,26.32,0,0,1-36.83-5.18Z"/><polygon class="cls-3" points="455.52 82.63 448.5 51.01 368.18 111.6 351.31 89.25 431.64 28.65 403.16 13.22 492.57 0.23 455.52 82.63"/></g><g id="Layer_10" data-name="Layer 10"><text class="cls-4" transform="translate(600.75 192.72)">BRANDLEY</text><text class="cls-5" transform="translate(613.35 294.72)">BUSINESS SOLUTIONS</text></g></g></svg>